<?xml version="1.0" encoding="UTF-8"?>
<svg xmlns="http://www.w3.org/2000/svg" xmlns:xlink="http://www.w3.org/1999/xlink" width="185.24pt" height="189.03pt" viewBox="0 0 185.24 189.03" version="1.1">
<defs>
<clipPath id="clip1">
  <path d="M 0 0 L 185.238281 0 L 185.238281 189.03125 L 0 189.03125 Z M 0 0 "/>
</clipPath>
<clipPath id="clip2">
  <path d="M 94 76 L 185.238281 76 L 185.238281 167 L 94 167 Z M 94 76 "/>
</clipPath>
<clipPath id="clip3">
  <path d="M 10 112 L 158 112 L 158 189.03125 L 10 189.03125 Z M 10 112 "/>
</clipPath>
</defs>
<g id="surface1">
<g clip-path="url(#clip1)" clip-rule="nonzero">
<path style=" stroke:none;fill-rule:nonzero;fill:rgb(100%,100%,100%);fill-opacity:1;" d="M 63.617188 5.183594 C 40.574219 13.070313 20.953125 30.304688 10.074219 52.085938 C 6.289063 59.589844 3.523438 67.601563 1.859375 75.839844 C -2.316406 96.367188 0.59375 118.257813 10.0625 136.953125 C 16.21875 149.160156 25.039063 160.007813 35.742188 168.515625 C 45.839844 176.566406 57.609375 182.511719 70.085938 185.832031 C 85.832031 190.054688 102.589844 189.957031 118.4375 186.351563 C 132.761719 183.054688 146.3125 176.210938 157.132813 166.222656 C 168.570313 155.710938 176.730469 141.863281 181.046875 126.984375 C 185.757813 110.75 186.410156 93.421875 183.453125 76.808594 C 153.808594 76.792969 124.160156 76.800781 94.511719 76.804688 C 94.515625 89.097656 94.5 101.394531 94.519531 113.6875 C 111.691406 113.6875 128.859375 113.683594 146.027344 113.6875 C 144.035156 125.472656 137.03125 136.25 127.101563 142.882813 C 120.859375 147.078125 113.6875 149.804688 106.292969 151.101563 C 98.851563 152.371094 91.160156 152.53125 83.738281 151.03125 C 76.1875 149.523438 68.980469 146.378906 62.695313 141.945313 C 52.644531 134.882813 44.972656 124.550781 41.03125 112.921875 C 37.003906 101.09375 36.976563 87.933594 41.050781 76.117188 C 43.878906 67.789063 48.585938 60.09375 54.769531 53.835938 C 62.394531 46.027344 72.3125 40.445313 82.996094 38.15625 C 92.144531 36.203125 101.789063 36.574219 110.746094 39.285156 C 118.355469 41.597656 125.375 45.765625 131.121094 51.257813 C 136.933594 45.480469 142.714844 39.667969 148.515625 33.878906 C 151.554688 30.765625 154.753906 27.785156 157.699219 24.585938 C 148.890625 16.433594 138.566406 9.882813 127.285156 5.738281 C 106.972656 -1.734375 84.066406 -1.894531 63.617188 5.183594 "/>
</g>
<path style=" stroke:none;fill-rule:nonzero;fill:rgb(92.199707%,26.699829%,20.799255%);fill-opacity:1;" d="M 63.617188 5.183594 C 84.066406 -1.894531 106.972656 -1.734375 127.285156 5.738281 C 138.566406 9.882813 148.890625 16.433594 157.699219 24.585938 C 154.753906 27.785156 151.554688 30.765625 148.515625 33.878906 C 142.714844 39.667969 136.933594 45.480469 131.121094 51.257813 C 125.375 45.765625 118.355469 41.597656 110.746094 39.285156 C 101.789063 36.574219 92.144531 36.203125 82.996094 38.15625 C 72.3125 40.445313 62.394531 46.027344 54.769531 53.835938 C 48.585938 60.09375 43.878906 67.789063 41.050781 76.117188 C 30.726563 68.105469 20.402344 60.089844 10.074219 52.085938 C 20.953125 30.304688 40.574219 13.070313 63.617188 5.183594 "/>
<path style=" stroke:none;fill-rule:nonzero;fill:rgb(97.999573%,73.699951%,7.499695%);fill-opacity:1;" d="M 1.859375 75.839844 C 3.523438 67.601563 6.289063 59.589844 10.074219 52.085938 C 20.402344 60.089844 30.726563 68.105469 41.050781 76.117188 C 36.976563 87.933594 37.003906 101.09375 41.03125 112.921875 C 30.710938 120.933594 20.398438 128.953125 10.0625 136.953125 C 0.59375 118.257813 -2.316406 96.367188 1.859375 75.839844 "/>
<g clip-path="url(#clip2)" clip-rule="nonzero">
<path style=" stroke:none;fill-rule:nonzero;fill:rgb(33.299255%,49.398804%,74.899292%);fill-opacity:1;" d="M 94.511719 76.804688 C 124.160156 76.800781 153.808594 76.792969 183.453125 76.808594 C 186.410156 93.421875 185.757813 110.75 181.046875 126.984375 C 176.730469 141.863281 168.570313 155.710938 157.132813 166.222656 C 147.136719 158.429688 137.101563 150.679688 127.101563 142.882813 C 137.03125 136.25 144.035156 125.472656 146.027344 113.6875 C 128.859375 113.683594 111.691406 113.6875 94.519531 113.6875 C 94.5 101.394531 94.515625 89.097656 94.511719 76.804688 "/>
</g>
<g clip-path="url(#clip3)" clip-rule="nonzero">
<path style=" stroke:none;fill-rule:nonzero;fill:rgb(20.799255%,65.899658%,32.199097%);fill-opacity:1;" d="M 10.0625 136.953125 C 20.398438 128.953125 30.710938 120.933594 41.03125 112.921875 C 44.972656 124.550781 52.644531 134.882813 62.695313 141.945313 C 68.980469 146.378906 76.1875 149.523438 83.738281 151.03125 C 91.160156 152.53125 98.851563 152.371094 106.292969 151.101563 C 113.6875 149.804688 120.859375 147.078125 127.101563 142.882813 C 137.101563 150.679688 147.136719 158.429688 157.132813 166.222656 C 146.3125 176.210938 132.761719 183.054688 118.4375 186.351563 C 102.589844 189.957031 85.832031 190.054688 70.085938 185.832031 C 57.609375 182.511719 45.839844 176.566406 35.742188 168.515625 C 25.039063 160.007813 16.21875 149.160156 10.0625 136.953125 "/>
</g>
</g>
</svg>
